<?xml version="1.0" standalone="no"?>
<!DOCTYPE svg PUBLIC "-//W3C//DTD SVG 20010904//EN"
 "http://www.w3.org/TR/2001/REC-SVG-20010904/DTD/svg10.dtd">
<svg version="1.0" xmlns="http://www.w3.org/2000/svg"
 width="121.000000pt" height="94.000000pt" viewBox="0 0 121.000000 94.000000"
 preserveAspectRatio="xMidYMid meet">

<g transform="translate(0.000000,94.000000) scale(0.100000,-0.100000)"
fill="#000000" stroke="none">
<path d="M711 798 c16 -56 11 -106 -15 -147 -34 -53 -70 -79 -122 -87 -62 -9
-109 2 -148 36 l-34 30 -6 -31 c-11 -59 -5 -193 12 -248 l17 -54 27 41 c79
118 201 139 292 48 23 -23 49 -52 58 -66 l16 -25 12 40 c22 70 24 234 5 301
-21 74 -50 131 -83 167 -34 36 -43 34 -31 -5z"/>
<path d="M99 173 c-36 -91 -38 -103 -25 -103 8 0 19 20 26 50 7 28 16 50 21
50 4 0 14 -19 20 -42 13 -45 25 -65 34 -56 10 9 -39 128 -52 128 -8 0 -18 -12
-24 -27z"/>
<path d="M210 135 c0 -37 4 -65 10 -65 6 0 10 28 10 65 0 37 -4 65 -10 65 -6
0 -10 -28 -10 -65z"/>
<path d="M710 187 c20 -10 25 -20 25 -52 0 -32 -5 -42 -25 -52 -24 -12 -24
-13 -3 -13 31 0 53 26 53 65 0 39 -22 65 -53 65 -21 0 -21 -1 3 -13z"/>
<path d="M790 136 c0 -37 4 -66 10 -66 6 0 10 11 10 24 0 38 16 39 44 4 14
-18 28 -29 32 -25 4 4 -1 16 -11 27 -18 19 -18 21 -1 33 11 8 17 23 14 38 -3
21 -9 24 -50 27 l-48 3 0 -65z m69 45 c21 -13 5 -41 -24 -41 -18 0 -25 5 -25
18 0 31 21 41 49 23z"/>
<path d="M930 135 l0 -65 46 0 c27 0 43 4 39 10 -3 6 -19 10 -36 10 -22 0 -29
5 -29 20 0 16 7 20 30 20 17 0 30 5 30 10 0 6 -13 10 -30 10 -20 0 -30 5 -30
15 0 10 10 15 30 15 17 0 30 5 30 10 0 6 -18 10 -40 10 l-40 0 0 -65z"/>
<path d="M1062 138 c-21 -58 -22 -93 -1 -55 13 22 69 24 69 2 0 -8 6 -15 14
-15 12 0 10 12 -7 65 -28 84 -46 85 -75 3z m50 7 c4 -19 1 -25 -13 -25 -20 0
-23 8 -13 34 9 24 21 19 26 -9z"/>
</g>
</svg>
